<?xml version="1.0" encoding="iso-8859-1"?>
<!-- Generator: Adobe Illustrator 15.0.0, SVG Export Plug-In . SVG Version: 6.00 Build 0)  -->
<!DOCTYPE svg PUBLIC "-//W3C//DTD SVG 1.1//EN" "http://www.w3.org/Graphics/SVG/1.1/DTD/svg11.dtd">
<svg version="1.1" id="Ebene_1" xmlns="http://www.w3.org/2000/svg" xmlns:xlink="http://www.w3.org/1999/xlink" x="0px" y="0px"
	 width="800px" height="800px" viewBox="0 0 800 800" style="enable-background:new 0 0 800 800;" xml:space="preserve">
<polygon style="fill:#1A171B;" points="146.374,237.015 184.015,237.014 89.914,400 184.034,562.984 146.395,562.985 52.274,400 "/>
<polygon style="fill:#1A171B;" points="241.613,530.388 279.253,530.389 354.532,400 316.894,400 "/>
<polygon style="fill:#1A171B;" points="374.482,237.015 336.842,237.015 430.941,400 336.842,562.986 374.481,562.985 468.582,400 
	"/>
<g>
	<path style="fill:#1A171B;" d="M564.362,352.371h7.955v69.212c0,8.84-2.188,15.834-6.563,20.982
		c-4.375,5.149-10.076,7.724-17.104,7.724c-7.558,0-13.547-2.354-17.966-7.061c-4.42-4.707-6.542-11.568-6.364-20.585l0.133-0.331
		h7.558c0,6.982,1.436,12.265,4.309,15.844c2.873,3.58,6.982,5.37,12.331,5.37c4.552,0,8.309-1.969,11.271-5.908
		c2.96-3.939,4.441-9.251,4.441-15.935V352.371z"/>
	<path style="fill:#1A171B;" d="M603.409,352.371l26.85,84.526h0.398l26.915-84.526h10.276v96.525h-7.89v-42.362l0.796-39.445
		l-0.398-0.066l-27.247,81.874h-5.304l-27.181-81.742l-0.397,0.066l0.796,39.313v42.362H593.2v-96.525H603.409z"/>
	<path style="fill:#1A171B;" d="M746.673,435.771c-1.768,3.624-5.027,6.95-9.778,9.977c-4.751,3.028-10.795,4.542-18.131,4.542
		c-9.68,0-17.469-3.071-23.369-9.216c-5.9-6.143-8.851-14.959-8.851-26.451v-28.706c0-11.27,2.784-19.91,8.354-25.921
		c5.568-6.01,13.016-9.016,22.341-9.016c9.104,0,16.153,2.376,21.148,7.126c4.993,4.752,7.601,11.37,7.822,19.855l-0.132,0.398
		h-7.426c-0.265-6.497-2.166-11.513-5.701-15.049c-3.536-3.536-8.773-5.304-15.712-5.304c-7.027,0-12.574,2.379-16.64,7.138
		c-4.067,4.759-6.1,11.652-6.1,20.683v28.883c0,9.385,2.188,16.533,6.563,21.446c4.375,4.914,10.275,7.37,17.701,7.37
		c5.436,0,9.788-0.976,13.06-2.927c3.271-1.952,5.546-4.326,6.828-7.122v-25.153h-20.021v-6.961h28.042V435.771z"/>
</g>
</svg>
